<svg id="Capa_1" enable-background="new 0 0 512 512" height="512" viewBox="0 0 512 512" width="512" xmlns="http://www.w3.org/2000/svg"><g><g><path d="m241 114.954h30v111h-30z" fill="#ffe477"/></g><g><path d="m256 114.954h15v111h-15z" fill="#ffda44"/></g><path d="m413.128 397.952c-7.556-80.136-75.015-142.84-157.128-142.84s-149.572 62.704-157.128 142.84h-98.872v30h512v-30z" fill="#ffb655"/><path d="m413.128 397.952c-7.556-80.136-75.015-142.84-157.128-142.84v172.841h256v-30h-98.872z" fill="#ff7037"/><g><g><path d="m63.667 457.952h384.667v30h-384.667z" fill="#ffb655"/></g></g><g><path d="m256 457.952h192.333v30h-192.333z" fill="#ff7037"/></g><g><g><path d="m33.794 300.29h30v69.001h-30z" fill="#ffb655" transform="matrix(.353 -.936 .936 .353 -281.678 262.306)"/></g></g><g><g><path d="m155.591 174.112h30v69.001h-30z" fill="#ffb655" transform="matrix(.923 -.386 .386 .923 -67.243 81.902)"/></g></g><g><g><path d="m306.908 193.612h69.001v30h-69.001z" fill="#ff7037" transform="matrix(.386 -.923 .923 .386 17.296 443.196)"/></g></g><g><g><path d="m428.705 319.791h69.001v30h-69.001z" fill="#ff7037" transform="matrix(.936 -.353 .353 .936 -88.34 184.984)"/></g></g><g><path d="m69.528 185.98h30v111h-30z" fill="#ffe477" transform="matrix(.707 -.707 .707 .707 -145.995 130.498)"/></g><g><path d="m371.972 226.48h111v30h-111z" fill="#ffda44" transform="matrix(.707 -.707 .707 .707 -45.548 372.997)"/></g><path d="m510.465 70.036-45.988-45.988h-21.213l-46.305 46.303 21.213 21.213 20.698-20.697v72.531h30v-72.531l20.382 20.382z" fill="#6fbf6b"/></g></svg>